<?xml version="1.0" encoding="UTF-8" standalone="no"?>
<svg
   xmlns:dc="http://purl.org/dc/elements/1.1/"
   xmlns:cc="http://creativecommons.org/ns#"
   xmlns:rdf="http://www.w3.org/1999/02/22-rdf-syntax-ns#"
   xmlns:svg="http://www.w3.org/2000/svg"
   xmlns="http://www.w3.org/2000/svg"
   xmlns:sodipodi="http://sodipodi.sourceforge.net/DTD/sodipodi-0.dtd"
   xmlns:inkscape="http://www.inkscape.org/namespaces/inkscape"
   id="svg"
   version="1.1"
   width="400"
   height="300.81680280046675"
   viewBox="0 0 400 300.81680280046675"
   sodipodi:docname="actinia_Logo_highres.svg"
   inkscape:version="0.92.4 (unknown)">
  <metadata
     id="metadata11">
    <rdf:RDF>
      <cc:Work
         rdf:about="">
        <dc:format>image/svg+xml</dc:format>
        <dc:type
           rdf:resource="http://purl.org/dc/dcmitype/StillImage" />
        <dc:title></dc:title>
      </cc:Work>
    </rdf:RDF>
  </metadata>
  <defs
     id="defs9" />
  <sodipodi:namedview
     pagecolor="#ffffff"
     bordercolor="#666666"
     borderopacity="1"
     objecttolerance="10"
     gridtolerance="10"
     guidetolerance="10"
     inkscape:pageopacity="0"
     inkscape:pageshadow="2"
     inkscape:window-width="1920"
     inkscape:window-height="1020"
     id="namedview7"
     showgrid="false"
     inkscape:zoom="2.2189878"
     inkscape:cx="189.96853"
     inkscape:cy="144.14723"
     inkscape:window-x="0"
     inkscape:window-y="31"
     inkscape:window-maximized="1"
     inkscape:current-layer="svg" />
  <path
     style="fill:#fbfbfb;fill-rule:evenodd;stroke:none"
     inkscape:connector-curvature="0"
     d="M 0,150.408 V 300.817 H 200 400 V 150.408 0 H 200 0 V 150.408 M 185.288,11.61 c -0.005,0.225 -0.758,0.986 -1.673,1.692 -9.901,7.638 -19.293,21.266 -22.355,32.439 -0.158,0.578 -0.367,1.313 -0.465,1.634 -0.37,1.218 -1.057,4.849 -1.39,7.351 -0.306,2.301 -0.323,9.53 -0.027,11.834 1.56,12.151 1.938,26.914 0.857,33.44 -0.064,0.385 -0.236,1.54 -0.384,2.567 -0.3,2.095 -1.084,6.169 -1.391,7.235 -0.111,0.385 -0.33,1.172 -0.486,1.75 -2.058,7.596 -6.769,16.809 -11.813,23.104 -10.866,13.557 -13.822,17.879 -17.714,25.904 -0.84,1.733 -1.611,3.361 -1.712,3.617 -0.102,0.257 -0.318,0.782 -0.481,1.167 -0.567,1.343 -0.679,1.647 -1.376,3.734 -1.618,4.841 -2.488,8.806 -3.175,14.469 -0.396,3.257 -0.463,11.827 -0.114,14.518 0.13,1 0.343,2.658 0.474,3.685 0.36,2.813 1.474,8.402 1.861,9.335 0.107,0.257 0.944,1.36 1.862,2.451 0.917,1.091 2.256,2.8 2.976,3.797 1.562,2.164 1.665,2.109 1.428,-0.764 -1.459,-17.634 1.608,-31.883 9.403,-43.681 1.498,-2.266 5.095,-7.028 5.787,-7.66 0.07,-0.065 0.807,-0.905 1.636,-1.867 1.932,-2.241 6.556,-6.865 9.11,-9.109 1.091,-0.959 2.036,-1.801 2.1,-1.871 0.22,-0.241 4.783,-3.859 6.768,-5.367 1.091,-0.828 2.036,-1.56 2.101,-1.625 0.064,-0.065 1.429,-1.108 3.033,-2.318 7.927,-5.978 7.639,-5.627 7.008,-8.532 -0.111,-0.513 -0.328,-1.564 -0.481,-2.334 -0.154,-0.77 -0.36,-1.715 -0.459,-2.1 -0.099,-0.385 -0.314,-1.33 -0.479,-2.1 -0.3,-1.407 -2.912,-11.883 -3.724,-14.936 -0.65,-2.447 -1.819,-6.922 -1.981,-7.585 -0.078,-0.321 -0.237,-0.951 -0.352,-1.4 -0.188,-0.733 -0.822,-3.417 -1.406,-5.951 -0.118,-0.513 -0.42,-1.984 -0.671,-3.267 -0.43,-2.197 -0.589,-3.178 -1.18,-7.28 -0.312,-2.167 -0.313,-9.623 -0.001,-11.409 1.348,-7.715 3.617,-12.564 8.471,-18.106 4.137,-4.721 7.58,-6.854 5.083,-3.148 -2.267,3.365 -4.284,7.826 -5.397,11.938 -0.651,2.404 -0.896,3.423 -1.123,4.668 -0.141,0.77 -0.39,2.135 -0.554,3.033 -0.407,2.221 -0.399,13.767 0.01,16.453 0.778,5.101 1.832,10.135 2.712,12.952 0.16,0.514 0.427,1.406 0.592,1.984 0.165,0.578 0.456,1.523 0.645,2.1 0.189,0.578 0.428,1.366 0.53,1.751 0.103,0.385 0.519,1.802 0.925,3.15 0.407,1.348 0.835,2.792 0.953,3.209 0.118,0.417 0.312,1.1 0.431,1.517 0.975,3.401 3.284,12.581 3.284,13.053 0,3.48 8.046,-9.869 9.802,-16.262 0.657,-2.39 0.846,-2.8 1.292,-2.8 1.075,0 1.273,7.3 0.303,11.201 -0.619,2.489 -0.88,3.394 -1.347,4.668 -1.095,2.987 -4.184,8.133 -6.235,10.385 -1.93,2.12 -1.851,1.592 -0.994,6.651 0.706,4.172 1.486,10.936 1.768,15.344 0.17,2.646 0.196,2.665 1.409,1.05 3.462,-4.608 5.326,-7.609 8.007,-12.893 3.291,-6.487 3.207,-5.973 2.029,-12.34 -0.026,-0.144 0.153,-0.262 0.399,-0.262 0.457,0 0.523,0.139 1.076,2.275 0.347,1.337 0.509,1.38 0.896,0.233 0.162,-0.481 0.387,-1.085 0.498,-1.342 0.285,-0.655 1.034,-2.952 1.638,-5.017 0.281,-0.963 0.597,-2.013 0.703,-2.334 0.163,-0.496 1.098,-4.292 1.867,-7.584 0.351,-1.504 0.949,-4.555 1.188,-6.068 0.122,-0.77 0.328,-2.03 0.459,-2.801 0.421,-2.489 1.089,-7.535 1.389,-10.501 0.481,-4.757 0.708,-7.561 0.9,-11.164 0.515,-9.608 1.917,-1.921 1.889,10.347 -0.016,6.544 -0.95,18.662 -1.844,23.921 -0.131,0.77 -0.34,2.03 -0.465,2.8 -0.124,0.77 -0.338,1.925 -0.476,2.567 -0.137,0.642 -0.354,1.692 -0.481,2.334 -0.348,1.754 -0.942,4.23 -1.371,5.717 -0.129,0.45 -0.332,1.185 -0.45,1.634 -0.394,1.504 -2.083,6.395 -2.969,8.598 -0.861,2.141 -0.872,2.21 -0.618,3.734 0.257,1.544 0.517,3.694 0.971,8.011 0.13,1.241 0.237,3.106 0.237,4.143 0,1.977 0.222,2.323 0.946,1.477 1.419,-1.658 7.26,-9.713 8.972,-12.374 1.321,-2.051 2.36,-1.875 1.213,0.207 -1.378,2.501 -1.741,3.146 -3.164,5.632 -1.457,2.547 -3.813,6.327 -5.765,9.252 l -1.618,2.425 -0.395,6.676 c -0.517,8.756 -1.166,13.697 -2.401,18.287 -0.764,2.841 8.905,-7.973 12.615,-14.108 0.632,-1.045 1.44,-2.38 1.796,-2.968 0.588,-0.973 4.385,-8.593 4.835,-9.704 0.104,-0.256 0.41,-0.964 0.679,-1.572 0.27,-0.609 0.49,-1.248 0.49,-1.42 0,-0.173 0.07,-0.383 0.155,-0.469 0.22,-0.22 2.134,-5.625 2.658,-7.507 0.107,-0.385 0.3,-1.068 0.428,-1.517 0.889,-3.112 1.156,-4.118 1.453,-5.484 0.14,-0.642 0.349,-1.587 0.465,-2.101 1.213,-5.357 1.884,-9.92 2.396,-16.284 0.173,-2.154 0.38,-3.98 0.459,-4.059 0.381,-0.381 0.787,0.563 1.041,2.422 1.323,9.673 0.396,23.038 -2.263,32.624 -1.867,6.73 -4.324,12.677 -7.694,18.622 -4.505,7.947 -13.23,17.21 -21.441,22.764 -1.269,0.858 -1.572,1.216 -2.359,2.786 -3.098,6.182 -6.523,10.588 -11.471,14.759 -0.834,0.703 -1.569,1.334 -1.633,1.401 -0.064,0.068 -0.589,0.485 -1.167,0.928 -0.578,0.443 -1.103,0.86 -1.167,0.928 -0.299,0.316 -4.904,3.64 -6.184,4.464 -4.595,2.956 -12.054,6.977 -12.944,6.977 -1.141,0 -0.019,0.678 1.933,1.169 2.179,0.547 4.669,1.372 7.102,2.353 0.289,0.116 0.761,0.303 1.05,0.414 3.564,1.372 9.762,4.647 13.477,7.12 6.148,4.094 12.944,10.442 11.144,10.409 -0.161,-0.003 -0.712,-0.385 -1.226,-0.848 -4.636,-4.185 -12.008,-8.296 -17.736,-9.891 -6.42,-1.788 -8.344,-2.172 -15.402,-3.075 -3.09,-0.396 -18.44,-0.389 -21.821,0.01 -1.347,0.159 -3.5,0.397 -4.784,0.53 -1.283,0.132 -2.99,0.336 -3.793,0.453 -3.393,0.495 -4.909,0.729 -6.008,0.926 -0.642,0.116 -1.85,0.327 -2.684,0.47 -0.835,0.142 -1.937,0.349 -2.451,0.458 -0.513,0.109 -1.563,0.321 -2.333,0.47 -2.11,0.409 -4.977,1.037 -6.418,1.406 -0.449,0.115 -2.182,0.538 -3.851,0.94 -1.668,0.402 -3.349,0.823 -3.734,0.936 -2.492,0.729 -4.088,1.19 -4.901,1.415 -0.513,0.142 -1.196,0.339 -1.516,0.437 -0.321,0.099 -1.004,0.297 -1.517,0.439 -2.768,0.771 -11.846,3.747 -15.053,4.936 -1.091,0.404 -2.246,0.818 -2.567,0.92 -0.321,0.102 -1.675,0.623 -3.01,1.158 -2.269,0.909 -3.058,1.041 -3.058,0.509 0,-0.279 2.973,-2.376 6.768,-4.776 1.605,-1.015 3.467,-2.199 4.139,-2.632 0.672,-0.433 1.286,-0.787 1.364,-0.787 0.079,0 0.421,-0.194 0.762,-0.431 1.066,-0.742 6.338,-3.607 9.254,-5.029 3.092,-1.507 6.159,-2.941 6.291,-2.941 0.063,0 0.774,-0.297 1.58,-0.66 0.805,-0.363 2.094,-0.898 2.865,-1.19 0.77,-0.291 1.61,-0.614 1.867,-0.717 0.256,-0.103 0.834,-0.313 1.283,-0.467 0.449,-0.155 1.027,-0.365 1.284,-0.467 0.89,-0.355 1.879,-0.674 4.317,-1.389 3.476,-1.02 3.723,-1.091 4.959,-1.415 1.404,-0.368 1.39,-0.443 -0.236,-1.223 -10.084,-4.841 -19.162,-15.24 -23.375,-26.778 -0.164,-0.449 -0.387,-1.027 -0.496,-1.284 -0.267,-0.629 -0.934,-2.637 -1.163,-3.5 -0.102,-0.385 -0.338,-1.278 -0.524,-1.984 -0.336,-1.272 -0.633,-2.783 -1.076,-5.484 -0.126,-0.77 -0.3,-2.77 -0.385,-4.445 l -0.154,-3.044 -2.966,-3.023 c -6.137,-6.258 -11.079,-14.024 -12.653,-19.885 -0.112,-0.417 -0.316,-1.152 -0.453,-1.634 -1.5,-5.273 -1.717,-11.598 -0.563,-16.394 0.077,-0.321 0.249,-1.056 0.382,-1.634 0.208,-0.903 0.658,-2.262 1.354,-4.084 0.383,-1.004 2.222,-4.716 2.773,-5.6 3.059,-4.901 3.904,-5.872 12.897,-14.82 4.064,-4.043 8.163,-8.243 9.108,-9.334 0.946,-1.092 1.773,-2.037 1.838,-2.101 1.608,-1.576 8.202,-10.311 11.362,-15.052 1.991,-2.987 5.672,-8.902 5.672,-9.114 0,-0.037 0.507,-0.945 1.126,-2.018 0.62,-1.073 2.133,-3.995 3.362,-6.495 2.035,-4.136 2.682,-5.511 3.56,-7.578 0.164,-0.385 0.459,-1.067 0.656,-1.516 0.568,-1.294 3.234,-7.991 3.438,-8.635 0.102,-0.321 0.516,-1.476 0.921,-2.567 0.948,-2.559 2.099,-6.016 3.031,-9.102 0.406,-1.348 0.825,-2.713 0.93,-3.034 0.105,-0.321 0.321,-1.056 0.479,-1.633 0.158,-0.578 0.368,-1.313 0.467,-1.634 0.098,-0.321 0.307,-1.056 0.464,-1.634 0.606,-2.234 1.204,-2.79 1.57,-1.458 0.277,1.004 0.173,11.411 -0.134,13.36 -0.151,0.963 -0.385,2.538 -0.519,3.501 -0.135,0.963 -0.336,2.17 -0.447,2.684 -0.593,2.745 -1.164,5.174 -1.427,6.068 -0.387,1.32 -2.097,6.534 -2.295,7.001 -0.11,0.256 -0.333,0.834 -0.497,1.283 -2.181,5.972 -7.132,14.656 -11.975,21.004 -1.449,1.899 -6.928,8.449 -7.614,9.101 -0.067,0.064 -0.803,0.905 -1.635,1.867 -0.832,0.963 -1.565,1.803 -1.63,1.867 -0.065,0.064 -0.695,0.8 -1.399,1.634 -0.705,0.834 -1.335,1.569 -1.402,1.633 -0.067,0.065 -0.591,0.695 -1.165,1.401 -0.574,0.706 -1.099,1.336 -1.167,1.4 -0.068,0.064 -0.593,0.694 -1.167,1.4 -0.574,0.706 -1.1,1.336 -1.17,1.4 -0.069,0.065 -0.489,0.59 -0.933,1.167 -0.444,0.578 -0.942,1.191 -1.106,1.362 -0.164,0.172 -0.585,0.697 -0.936,1.167 -0.35,0.47 -0.691,0.908 -0.758,0.972 -0.655,0.632 -6.615,8.847 -8.041,11.085 -0.491,0.77 -1.245,1.95 -1.675,2.622 -0.431,0.672 -0.784,1.286 -0.784,1.364 0,0.078 -0.196,0.421 -0.435,0.762 -1.889,2.688 -5.02,9.959 -5.972,13.87 -2.49,10.224 -0.708,17.654 6.251,26.073 0.902,1.091 1.676,2.029 1.719,2.085 0.223,0.286 0.551,-0.509 0.766,-1.857 0.582,-3.652 1.474,-7.55 2.802,-12.247 0.678,-2.396 2.181,-7.059 2.558,-7.935 0.11,-0.256 0.431,-1.096 0.713,-1.867 0.282,-0.77 0.597,-1.61 0.701,-1.867 0.104,-0.256 0.47,-1.201 0.814,-2.1 0.343,-0.898 0.786,-2.001 0.983,-2.45 0.196,-0.45 0.492,-1.132 0.655,-1.517 0.164,-0.385 0.53,-1.225 0.814,-1.867 0.284,-0.642 0.675,-1.535 0.87,-1.984 0.622,-1.438 6.088,-12.43 6.962,-14.002 0.465,-0.834 1.135,-2.042 1.489,-2.684 1.12,-2.025 1.532,-2.73 3.274,-5.601 0.934,-1.54 2.063,-3.411 2.507,-4.157 1.314,-2.208 2.401,-2.128 1.381,0.101 -0.317,0.695 -0.804,1.839 -1.081,2.543 -0.276,0.704 -0.662,1.647 -0.858,2.097 -0.196,0.449 -0.436,1.026 -0.534,1.283 -0.236,0.617 -0.589,1.498 -0.888,2.217 -0.134,0.321 -0.788,2.001 -1.453,3.734 -0.666,1.733 -1.296,3.361 -1.4,3.617 -0.374,0.917 -0.992,2.577 -1.174,3.151 -0.102,0.321 -0.516,1.476 -0.921,2.567 -0.404,1.091 -0.996,2.771 -1.314,3.734 -0.318,0.963 -0.672,1.96 -0.787,2.217 -0.248,0.556 -0.779,2.17 -2.11,6.418 -0.543,1.732 -1.17,3.728 -1.394,4.434 -0.223,0.706 -0.537,1.756 -0.698,2.333 -0.16,0.578 -0.372,1.313 -0.471,1.634 -0.098,0.321 -0.308,1.056 -0.466,1.634 -0.159,0.577 -0.373,1.312 -0.478,1.633 -0.184,0.563 -1.895,7.544 -2.317,9.452 -0.114,0.513 -0.313,1.406 -0.442,1.984 -0.13,0.577 -0.301,1.417 -0.381,1.867 -0.423,2.393 -0.588,3.327 -0.905,5.134 -0.192,1.091 -0.42,2.725 -0.506,3.632 l -0.157,1.648 7.147,6.986 c 7.831,7.656 7.735,7.576 7.511,6.258 -0.585,-3.438 -0.393,-14.464 0.352,-20.275 0.239,-1.858 0.369,-2.616 1.021,-5.951 0.581,-2.97 2.293,-8.879 3.143,-10.851 0.11,-0.257 0.421,-0.965 0.691,-1.573 0.269,-0.608 0.49,-1.171 0.49,-1.25 0,-0.279 2.762,-5.641 3.709,-7.2 0.527,-0.867 0.958,-1.622 0.958,-1.678 0,-0.138 3.201,-4.909 3.971,-5.919 0.343,-0.449 1.208,-1.604 1.922,-2.567 0.715,-0.963 1.993,-2.643 2.84,-3.734 0.847,-1.091 2.3,-2.964 3.23,-4.162 4.308,-5.554 7.315,-9.934 9.401,-13.691 0.763,-1.374 2.44,-4.75 2.44,-4.911 0,-0.061 0.199,-0.557 0.441,-1.101 0.762,-1.71 1.28,-3.155 2.109,-5.89 0.117,-0.385 0.418,-1.593 0.669,-2.684 0.435,-1.89 0.634,-3.031 1.224,-7.001 0.158,-1.056 0.338,-8.595 0.456,-19.02 0.181,-16.054 0.343,-20.528 0.947,-26.254 1.223,-11.6 3.85,-19.936 8.453,-26.825 0.896,-1.341 1.747,-2.568 1.891,-2.727 0.145,-0.159 0.891,-1.005 1.658,-1.88 2.469,-2.814 7.067,-6.647 10.212,-8.512 5.783,-3.429 7.889,-4.372 7.87,-3.522 m -9.46,135.613 c -3.934,2.717 -6.602,4.705 -10.48,7.809 -6.665,5.334 -12.944,12.156 -17.589,19.111 -0.661,0.989 -1.201,1.845 -1.201,1.902 0,0.057 -0.411,0.78 -0.914,1.607 -1.103,1.817 -3.956,7.688 -4.678,9.629 -0.287,0.77 -0.611,1.61 -0.72,1.867 -1.785,4.207 -3.683,12.652 -4.694,20.887 -0.454,3.696 -0.425,18.532 0.038,19.545 0.472,1.034 0.699,0.952 0.699,-0.253 0,-0.556 0.098,-1.58 0.217,-2.275 0.119,-0.696 0.336,-1.999 0.482,-2.898 1.318,-8.102 4.213,-16.291 8.043,-22.755 1.014,-1.711 3.24,-5.011 3.619,-5.366 0.069,-0.065 0.7,-0.8 1.404,-1.634 2.694,-3.195 6.352,-6.394 9.923,-8.679 9.925,-6.352 14.927,-10.028 19.453,-14.296 l 1.251,-1.179 -0.138,-6.184 c -0.136,-6.092 -0.301,-8.702 -0.858,-13.536 -0.155,-1.348 -0.347,-3.027 -0.427,-3.732 -0.194,-1.715 -0.355,-1.694 -3.43,0.43 m 24.326,9.678 c -3.047,5.415 -5.783,9.059 -9.781,13.026 l -2.742,2.721 0.001,1.716 c 0,0.943 -0.109,2.608 -0.241,3.699 -0.579,4.759 -0.736,5.982 -0.833,6.476 -0.193,0.989 1.043,0.21 4.691,-2.954 1.638,-1.422 8.882,-8.747 9.336,-9.442 0.533,-0.815 1.058,-12.664 0.679,-15.328 l -0.214,-1.506 -0.896,1.592 m -23.725,23.655 c -6.944,5.287 -10.032,7.967 -15.752,13.672 -2.567,2.56 -5.14,5.229 -5.718,5.929 -0.577,0.701 -1.213,1.451 -1.412,1.667 -1.303,1.414 -6.339,8.449 -7.444,10.4 -0.264,0.465 -0.706,1.239 -0.984,1.72 -1.515,2.621 -3.16,6.126 -2.876,6.126 0.041,0 0.792,-0.919 1.667,-2.042 5.366,-6.884 15.219,-14.699 31.047,-24.623 1.497,-0.938 1.389,-0.748 2.411,-4.257 0.262,-0.898 0.571,-1.948 0.688,-2.334 0.343,-1.13 1.187,-5.236 1.548,-7.526 0.206,-1.306 0.205,-1.306 -3.175,1.268 m 23.213,-1.614 c -0.133,0.094 -0.898,0.981 -1.7,1.971 -3.219,3.974 -8.879,9.912 -11.711,12.287 -1.842,1.545 -2.115,1.926 -2.735,3.82 -1.326,4.047 -3.914,9.828 -6.001,13.401 -0.753,1.289 -0.646,1.324 1.579,0.512 1.048,-0.382 2.377,-0.859 2.954,-1.058 1.846,-0.64 5.568,-2.397 8.586,-4.053 1.135,-0.624 2.596,-3.328 4.467,-8.272 0.292,-0.771 0.618,-1.611 0.726,-1.867 0.41,-0.981 1.677,-5.117 2.323,-7.585 0.895,-3.416 2.058,-9.342 1.832,-9.331 -0.043,0.002 -0.187,0.08 -0.32,0.175 m -99.673,18.433 c 0.068,0.353 0.186,1.429 0.263,2.392 0.968,12.144 9.206,24.504 22.788,34.19 4.571,3.26 5.81,3.878 6.761,3.369 0.439,-0.235 0.418,-0.299 -0.443,-1.342 -3.779,-4.573 -7.093,-10.049 -9.171,-15.156 -0.118,-0.288 -0.319,-0.787 -0.447,-1.108 -0.128,-0.321 -0.333,-0.82 -0.455,-1.109 -0.122,-0.288 -0.457,-1.26 -0.745,-2.158 -1.009,-3.148 -8.57,-11.902 -14.903,-17.254 -3.198,-2.704 -3.882,-3.045 -3.648,-1.824 m 68.992,6.793 c -1.219,0.622 -2.742,1.443 -3.383,1.826 -2.26,1.346 -5.144,3.189 -5.951,3.802 -0.45,0.341 -1.308,0.988 -1.909,1.437 -2.651,1.983 -7.991,7.01 -10.007,9.42 -4.255,5.087 -9.088,13.247 -9.088,15.342 0,0.853 2.428,0.353 3.492,-0.719 4.63,-4.669 11.887,-10.634 17.224,-14.16 2.137,-1.411 5.671,-5.942 8.986,-11.52 4.324,-7.277 4.328,-7.31 0.636,-5.428 m 135.405,0.742 c 2.466,0.685 2.434,4.635 -0.05,6.031 -1.868,1.05 -4.424,0.307 -4.947,-1.438 -0.884,-2.952 1.851,-5.466 4.997,-4.593 m 45.741,0 c 2.466,0.685 2.434,4.635 -0.05,6.031 -1.868,1.05 -4.424,0.307 -4.947,-1.438 -0.884,-2.952 1.851,-5.466 4.997,-4.593 m -64.255,4.507 c 0.172,0.207 0.192,0.547 0.058,0.992 -0.235,0.778 -0.638,2.635 -0.83,3.827 -0.072,0.449 -0.158,0.922 -0.19,1.05 -0.037,0.144 1.281,0.278 3.441,0.35 3.965,0.132 3.618,-0.127 3.128,2.334 -0.499,2.512 -0.182,2.333 -4.15,2.333 h -3.482 l -0.268,1.226 c -0.148,0.673 -0.361,1.645 -0.474,2.158 -0.113,0.514 -0.309,1.406 -0.436,1.984 -0.127,0.578 -0.356,1.68 -0.51,2.45 -0.153,0.77 -0.36,1.716 -0.459,2.101 -0.099,0.385 -0.304,1.33 -0.456,2.1 -0.152,0.77 -0.375,1.784 -0.496,2.253 -1.017,3.948 0.205,5.542 3.753,4.894 2.466,-0.45 2.208,-0.649 2.284,1.767 0.076,2.449 0.046,2.491 -2.168,3.033 -3.015,0.738 -6.981,0.202 -8.55,-1.155 -2.17,-1.878 -2.326,-4.682 -0.669,-12.075 0.13,-0.578 0.34,-1.576 0.468,-2.218 0.128,-0.641 0.326,-1.586 0.441,-2.1 0.115,-0.513 0.426,-1.999 0.692,-3.301 0.266,-1.302 0.514,-2.509 0.551,-2.683 0.051,-0.243 -0.388,-0.333 -1.87,-0.385 -2.209,-0.077 -2.27,-0.136 -1.842,-1.78 0.324,-1.246 0.32,-1.242 2.378,-2.141 2.623,-1.146 2.85,-1.283 3.175,-1.914 0.178,-0.347 0.823,-1.506 1.434,-2.575 0.61,-1.069 1.109,-2.035 1.109,-2.147 0,-0.678 3.417,-1.006 3.938,-0.378 m -106.826,8.903 c -3.256,1.861 -5.952,3.384 -5.991,3.384 -0.038,0 -0.979,0.525 -2.09,1.166 -1.111,0.642 -2.056,1.167 -2.1,1.167 -0.044,0 -0.989,0.525 -2.101,1.167 -1.111,0.642 -2.095,1.167 -2.187,1.167 -0.091,0 -0.792,0.532 -1.557,1.182 -2.007,1.706 -5.336,4.194 -7.224,5.4 -2.774,1.771 -4.175,2.631 -4.835,2.967 -0.952,0.486 -0.64,0.634 1.687,0.799 2.249,0.159 2.802,0.039 5.832,-1.272 10.088,-4.365 18.067,-10.128 24.768,-17.89 2.962,-3.43 3.219,-3.477 -4.202,0.763 m 55.746,-2.856 c 1.76,0.621 3.709,2.257 4.08,3.424 0.287,0.904 0.749,0.483 1.455,-1.327 l 0.706,-1.808 2.168,-0.068 c 2.824,-0.088 2.688,-0.318 1.907,3.218 -0.127,0.578 -0.464,2.153 -0.748,3.501 -0.284,1.347 -0.599,2.818 -0.699,3.267 -0.101,0.449 -0.416,1.919 -0.701,3.267 -0.284,1.348 -0.61,2.871 -0.725,3.384 -0.115,0.513 -0.314,1.459 -0.441,2.1 -0.128,0.642 -0.327,1.587 -0.441,2.101 -0.357,1.593 -1.24,5.793 -1.399,6.651 l -0.151,0.817 -2.374,0.066 -2.374,0.066 0.135,-2.166 0.134,-2.167 -1.646,1.578 c -6.889,6.603 -15.166,2.921 -15.213,-6.766 -0.058,-11.947 8.448,-21.918 16.327,-19.138 m 33.261,0.065 c 1.854,0.43 3.379,1.014 3.379,1.294 0,0.229 -0.513,1.646 -1.366,3.772 -0.267,0.666 -0.848,0.823 -1.613,0.437 -7.219,-3.647 -14.501,4.08 -13.254,14.064 0.454,3.637 4.581,5.639 8.532,4.14 1.216,-0.462 1.936,-0.76 2.389,-0.99 1.192,-0.607 1.345,-0.369 1.345,2.099 0,2.583 0.003,2.576 -1.751,3.18 -11.166,3.842 -18.43,-1.936 -16.576,-13.187 1.846,-11.195 9.307,-17.037 18.915,-14.809 m 61.032,-0.064 c 3.905,1.361 5.302,5.776 3.858,12.19 -0.477,2.118 -1.196,5.502 -1.537,7.234 -0.126,0.642 -0.335,1.64 -0.464,2.217 -0.129,0.578 -0.339,1.575 -0.467,2.217 -0.128,0.642 -0.338,1.64 -0.468,2.217 -0.13,0.578 -0.301,1.392 -0.381,1.809 l -0.145,0.758 h -3.034 -3.034 l 0.14,-0.991 c 0.076,-0.546 0.248,-1.465 0.381,-2.042 0.133,-0.578 0.346,-1.576 0.473,-2.218 0.128,-0.641 0.327,-1.586 0.441,-2.1 0.115,-0.513 0.441,-2.036 0.725,-3.384 0.283,-1.347 0.719,-3.395 0.968,-4.551 1.46,-6.775 0.939,-8.623 -2.423,-8.591 -2.25,0.022 -3.985,1.17 -5.752,3.807 -1.989,2.97 -2.776,5.336 -4.229,12.719 -0.127,0.642 -0.336,1.64 -0.465,2.217 -0.129,0.578 -0.338,1.575 -0.465,2.217 -0.127,0.642 -0.314,1.535 -0.417,1.984 l -0.186,0.817 -2.778,0.066 c -3.783,0.09 -3.491,0.439 -2.686,-3.217 0.155,-0.706 0.364,-1.703 0.465,-2.217 0.175,-0.898 0.513,-2.465 0.957,-4.434 0.116,-0.513 0.315,-1.459 0.443,-2.1 0.128,-0.642 0.326,-1.587 0.441,-2.101 0.115,-0.513 0.441,-2.036 0.726,-3.384 0.284,-1.347 0.6,-2.818 0.701,-3.267 0.101,-0.449 0.254,-1.184 0.339,-1.633 0.144,-0.763 0.239,-1.204 0.814,-3.793 0.121,-0.545 0.281,-1.284 0.356,-1.641 l 0.136,-0.65 2.386,0.066 2.386,0.067 -0.048,0.583 c -0.026,0.321 -0.12,1.397 -0.21,2.392 -0.116,1.3 -0.086,1.809 0.106,1.809 0.148,0 0.268,-0.11 0.268,-0.245 0,-0.439 3.203,-3.447 4.227,-3.969 2.28,-1.163 5.51,-1.535 7.452,-0.858 m 40.597,-0.001 c 1.759,0.621 3.708,2.257 4.079,3.424 0.287,0.904 0.749,0.483 1.455,-1.327 l 0.706,-1.808 2.168,-0.068 c 2.824,-0.088 2.688,-0.318 1.908,3.218 -0.128,0.578 -0.465,2.153 -0.749,3.501 -0.284,1.347 -0.599,2.818 -0.699,3.267 -0.101,0.449 -0.416,1.919 -0.7,3.267 -0.285,1.348 -0.611,2.871 -0.726,3.384 -0.115,0.513 -0.314,1.459 -0.441,2.1 -0.128,0.642 -0.326,1.587 -0.441,2.101 -0.357,1.593 -1.24,5.793 -1.399,6.651 l -0.151,0.817 -2.374,0.066 -2.374,0.066 0.135,-2.166 0.135,-2.167 -1.647,1.578 c -6.889,6.603 -15.166,2.921 -15.213,-6.766 -0.058,-11.947 8.448,-21.918 16.328,-19.138 m -65.578,0.271 c 0,0.124 -0.909,4.586 -1.193,5.852 -0.114,0.513 -0.313,1.459 -0.441,2.1 -0.127,0.642 -0.326,1.587 -0.441,2.101 -0.115,0.513 -0.441,2.036 -0.725,3.384 -0.285,1.347 -0.611,2.87 -0.726,3.383 -0.115,0.514 -0.314,1.459 -0.441,2.101 -0.128,0.642 -0.338,1.639 -0.467,2.217 -0.129,0.577 -0.339,1.575 -0.466,2.217 -0.214,1.077 -0.401,1.94 -0.885,4.084 l -0.184,0.817 -2.778,0.066 c -3.783,0.09 -3.491,0.439 -2.686,-3.217 0.155,-0.706 0.364,-1.703 0.465,-2.217 0.175,-0.898 0.513,-2.465 0.957,-4.434 0.116,-0.513 0.315,-1.459 0.443,-2.1 0.127,-0.642 0.326,-1.587 0.441,-2.101 0.115,-0.513 0.441,-2.036 0.726,-3.384 0.284,-1.347 0.6,-2.818 0.701,-3.267 0.101,-0.449 0.254,-1.184 0.339,-1.633 0.085,-0.45 0.26,-1.29 0.39,-1.867 0.294,-1.308 0.602,-2.72 0.778,-3.559 l 0.134,-0.642 h 3.03 c 1.666,0 3.029,0.045 3.029,0.099 m 45.741,0 c 0,0.124 -0.909,4.586 -1.193,5.852 -0.114,0.513 -0.313,1.459 -0.441,2.1 -0.127,0.642 -0.326,1.587 -0.441,2.101 -0.115,0.513 -0.441,2.036 -0.725,3.384 -0.285,1.347 -0.611,2.87 -0.726,3.383 -0.115,0.514 -0.314,1.459 -0.441,2.101 -0.128,0.642 -0.338,1.639 -0.467,2.217 -0.129,0.577 -0.339,1.575 -0.466,2.217 -0.214,1.077 -0.401,1.94 -0.885,4.084 l -0.184,0.817 -2.778,0.066 c -3.783,0.09 -3.491,0.439 -2.686,-3.217 0.155,-0.706 0.364,-1.703 0.464,-2.217 0.176,-0.898 0.514,-2.465 0.958,-4.434 0.116,-0.513 0.315,-1.459 0.443,-2.1 0.127,-0.642 0.326,-1.587 0.441,-2.101 0.115,-0.513 0.441,-2.036 0.726,-3.384 0.284,-1.347 0.599,-2.818 0.701,-3.267 0.101,-0.449 0.254,-1.184 0.339,-1.633 0.085,-0.45 0.26,-1.29 0.39,-1.867 0.294,-1.308 0.602,-2.72 0.778,-3.559 l 0.134,-0.642 h 3.03 c 1.666,0 3.029,0.045 3.029,0.099 m -118.058,4.56 c -5.51,1.362 -9.591,15.689 -5.332,18.724 3.023,2.155 7.948,-1.502 9.81,-7.285 2.416,-7.506 0.405,-12.645 -4.478,-11.439 m 134.89,0 c -5.511,1.362 -9.592,15.689 -5.333,18.724 3.024,2.155 7.948,-1.502 9.81,-7.285 2.417,-7.506 0.405,-12.645 -4.477,-11.439"
     id="path0" />
  <path
     style="fill:#86cd31;fill-rule:evenodd;stroke:none"
     inkscape:connector-curvature="0"
     d="m 182.38,12.352 c -3.863,2.032 -5.774,3.199 -8.229,5.027 -2.642,1.969 -5.197,4.274 -6.945,6.265 -0.767,0.875 -1.513,1.721 -1.658,1.88 -0.144,0.159 -0.995,1.386 -1.891,2.727 -4.603,6.889 -7.23,15.225 -8.453,26.825 -0.604,5.726 -0.766,10.2 -0.947,26.254 -0.118,10.425 -0.298,17.964 -0.456,19.02 -0.59,3.97 -0.789,5.111 -1.224,7.001 -0.251,1.091 -0.552,2.299 -0.669,2.684 -0.829,2.735 -1.347,4.18 -2.109,5.89 -0.242,0.544 -0.441,1.04 -0.441,1.101 0,0.161 -1.677,3.537 -2.44,4.911 -2.086,3.757 -5.093,8.137 -9.401,13.691 -0.93,1.198 -2.383,3.071 -3.23,4.162 -0.847,1.091 -2.125,2.771 -2.84,3.734 -0.714,0.963 -1.579,2.118 -1.922,2.567 -0.77,1.01 -3.971,5.781 -3.971,5.919 0,0.056 -0.431,0.811 -0.958,1.678 -0.947,1.559 -3.709,6.921 -3.709,7.2 0,0.079 -0.221,0.642 -0.49,1.25 -0.27,0.608 -0.581,1.316 -0.691,1.573 -0.85,1.972 -2.562,7.881 -3.143,10.851 -0.652,3.335 -0.782,4.093 -1.021,5.951 -0.745,5.811 -0.937,16.837 -0.352,20.275 0.224,1.318 0.32,1.398 -7.511,-6.258 l -7.147,-6.986 0.157,-1.648 c 0.086,-0.907 0.314,-2.541 0.506,-3.632 0.317,-1.807 0.482,-2.741 0.905,-5.134 0.08,-0.45 0.251,-1.29 0.381,-1.867 0.129,-0.578 0.328,-1.471 0.442,-1.984 0.422,-1.908 2.133,-8.889 2.317,-9.452 0.105,-0.321 0.319,-1.056 0.478,-1.633 0.158,-0.578 0.368,-1.313 0.466,-1.634 0.099,-0.321 0.311,-1.056 0.471,-1.634 0.161,-0.577 0.475,-1.627 0.698,-2.333 0.224,-0.706 0.851,-2.702 1.394,-4.434 1.331,-4.248 1.862,-5.862 2.11,-6.418 0.115,-0.257 0.469,-1.254 0.787,-2.217 0.318,-0.963 0.91,-2.643 1.314,-3.734 0.405,-1.091 0.819,-2.246 0.921,-2.567 0.182,-0.574 0.8,-2.234 1.174,-3.151 0.104,-0.256 0.734,-1.884 1.4,-3.617 0.665,-1.733 1.319,-3.413 1.453,-3.734 0.299,-0.719 0.652,-1.6 0.888,-2.217 0.098,-0.257 0.338,-0.834 0.534,-1.283 0.196,-0.45 0.582,-1.393 0.858,-2.097 0.277,-0.704 0.764,-1.848 1.081,-2.543 1.02,-2.229 -0.067,-2.309 -1.381,-0.101 -0.444,0.746 -1.573,2.617 -2.507,4.157 -1.742,2.871 -2.154,3.576 -3.274,5.601 -0.354,0.642 -1.024,1.85 -1.489,2.684 -0.874,1.572 -6.34,12.564 -6.962,14.002 -0.195,0.449 -0.586,1.342 -0.87,1.984 -0.284,0.642 -0.65,1.482 -0.814,1.867 -0.163,0.385 -0.459,1.067 -0.655,1.517 -0.197,0.449 -0.64,1.552 -0.983,2.45 -0.344,0.899 -0.71,1.844 -0.814,2.1 -0.104,0.257 -0.419,1.097 -0.701,1.867 -0.282,0.771 -0.603,1.611 -0.713,1.867 -0.377,0.876 -1.88,5.539 -2.558,7.935 -1.328,4.697 -2.22,8.595 -2.802,12.247 -0.215,1.348 -0.543,2.143 -0.766,1.857 -0.043,-0.056 -0.817,-0.994 -1.719,-2.085 -6.959,-8.419 -8.741,-15.849 -6.251,-26.073 0.952,-3.911 4.083,-11.182 5.972,-13.87 0.239,-0.341 0.435,-0.684 0.435,-0.762 0,-0.078 0.353,-0.692 0.784,-1.364 0.43,-0.672 1.184,-1.852 1.675,-2.622 1.426,-2.238 7.386,-10.453 8.041,-11.085 0.067,-0.064 0.408,-0.502 0.758,-0.972 0.351,-0.47 0.772,-0.995 0.936,-1.167 0.164,-0.171 0.662,-0.784 1.106,-1.362 0.444,-0.577 0.864,-1.102 0.933,-1.167 0.07,-0.064 0.596,-0.694 1.17,-1.4 0.574,-0.706 1.099,-1.336 1.167,-1.4 0.068,-0.064 0.593,-0.694 1.167,-1.4 0.574,-0.706 1.098,-1.336 1.165,-1.401 0.067,-0.064 0.697,-0.799 1.402,-1.633 0.704,-0.834 1.334,-1.57 1.399,-1.634 0.065,-0.064 0.798,-0.904 1.63,-1.867 0.832,-0.962 1.568,-1.803 1.635,-1.867 0.686,-0.652 6.165,-7.202 7.614,-9.101 4.843,-6.348 9.794,-15.032 11.975,-21.004 0.164,-0.449 0.387,-1.027 0.497,-1.283 0.198,-0.467 1.908,-5.681 2.295,-7.001 0.263,-0.894 0.834,-3.323 1.427,-6.068 0.111,-0.514 0.312,-1.721 0.447,-2.684 0.134,-0.963 0.368,-2.538 0.519,-3.501 0.307,-1.949 0.411,-12.356 0.134,-13.36 -0.366,-1.332 -0.964,-0.776 -1.57,1.458 -0.157,0.578 -0.366,1.313 -0.464,1.634 -0.099,0.321 -0.309,1.056 -0.467,1.634 -0.158,0.577 -0.374,1.312 -0.479,1.633 -0.105,0.321 -0.524,1.686 -0.93,3.034 -0.932,3.086 -2.083,6.543 -3.031,9.102 -0.405,1.091 -0.819,2.246 -0.921,2.567 -0.204,0.644 -2.87,7.341 -3.438,8.635 -0.197,0.449 -0.492,1.131 -0.656,1.516 -0.878,2.067 -1.525,3.442 -3.56,7.578 -1.229,2.5 -2.742,5.422 -3.362,6.495 -0.619,1.073 -1.126,1.981 -1.126,2.018 0,0.212 -3.681,6.127 -5.672,9.114 -3.16,4.741 -9.754,13.476 -11.362,15.052 -0.065,0.064 -0.892,1.009 -1.838,2.101 -0.945,1.091 -5.044,5.291 -9.108,9.334 -8.993,8.948 -9.838,9.919 -12.897,14.82 -0.551,0.884 -2.39,4.596 -2.773,5.6 -0.696,1.822 -1.146,3.181 -1.354,4.084 -0.133,0.578 -0.305,1.313 -0.382,1.634 -1.154,4.796 -0.937,11.121 0.563,16.394 0.137,0.482 0.341,1.217 0.453,1.634 1.574,5.861 6.516,13.627 12.653,19.885 l 2.966,3.023 0.154,3.044 c 0.085,1.675 0.259,3.675 0.385,4.445 0.443,2.701 0.74,4.212 1.076,5.484 0.186,0.706 0.422,1.599 0.524,1.984 0.229,0.863 0.896,2.871 1.163,3.5 0.109,0.257 0.332,0.835 0.496,1.284 4.213,11.538 13.291,21.937 23.375,26.778 1.626,0.78 1.64,0.855 0.236,1.223 -1.236,0.324 -1.483,0.395 -4.959,1.415 -2.438,0.715 -3.427,1.034 -4.317,1.389 -0.257,0.102 -0.835,0.312 -1.284,0.467 -0.449,0.154 -1.027,0.364 -1.283,0.467 -0.257,0.103 -1.097,0.426 -1.867,0.717 -0.771,0.292 -2.06,0.827 -2.865,1.19 -0.806,0.363 -1.517,0.66 -1.58,0.66 -0.132,0 -3.199,1.434 -6.291,2.941 -2.916,1.422 -8.188,4.287 -9.254,5.029 -0.341,0.237 -0.683,0.431 -0.762,0.431 -0.078,0 -0.692,0.354 -1.364,0.787 -0.672,0.433 -2.534,1.617 -4.139,2.632 -3.795,2.4 -6.768,4.497 -6.768,4.776 0,0.532 0.789,0.4 3.058,-0.509 1.335,-0.535 2.689,-1.056 3.01,-1.158 0.321,-0.102 1.476,-0.516 2.567,-0.92 3.207,-1.189 12.285,-4.165 15.053,-4.936 0.513,-0.142 1.196,-0.34 1.517,-0.439 0.32,-0.098 1.003,-0.295 1.516,-0.437 0.813,-0.225 2.409,-0.686 4.901,-1.415 0.385,-0.113 2.066,-0.534 3.734,-0.936 1.669,-0.402 3.402,-0.825 3.851,-0.94 1.441,-0.369 4.308,-0.997 6.418,-1.406 0.77,-0.149 1.82,-0.361 2.333,-0.47 0.514,-0.109 1.616,-0.316 2.451,-0.458 0.834,-0.143 2.042,-0.354 2.684,-0.47 1.099,-0.197 2.615,-0.431 6.008,-0.926 0.803,-0.117 2.51,-0.321 3.793,-0.453 1.284,-0.133 3.437,-0.371 4.784,-0.53 3.381,-0.399 18.731,-0.406 21.821,-0.01 7.058,0.903 8.982,1.287 15.402,3.075 5.728,1.595 13.1,5.706 17.736,9.891 0.514,0.463 1.065,0.845 1.226,0.848 1.8,0.033 -4.996,-6.315 -11.144,-10.409 -3.715,-2.473 -9.913,-5.748 -13.477,-7.12 -0.289,-0.111 -0.761,-0.298 -1.05,-0.414 -2.433,-0.981 -4.923,-1.806 -7.102,-2.353 -1.952,-0.491 -3.074,-1.169 -1.933,-1.169 0.89,0 8.349,-4.021 12.944,-6.977 1.28,-0.824 5.885,-4.148 6.184,-4.464 0.064,-0.068 0.589,-0.485 1.167,-0.928 0.578,-0.443 1.103,-0.86 1.167,-0.928 0.064,-0.067 0.799,-0.698 1.633,-1.401 4.948,-4.171 8.373,-8.577 11.471,-14.759 0.787,-1.57 1.09,-1.928 2.359,-2.786 8.211,-5.554 16.936,-14.817 21.441,-22.764 3.37,-5.945 5.827,-11.892 7.694,-18.622 2.659,-9.586 3.586,-22.951 2.263,-32.624 -0.254,-1.859 -0.66,-2.803 -1.041,-2.422 -0.079,0.079 -0.286,1.905 -0.459,4.059 -0.512,6.364 -1.183,10.927 -2.396,16.284 -0.116,0.514 -0.325,1.459 -0.465,2.101 -0.297,1.366 -0.564,2.372 -1.453,5.484 -0.128,0.449 -0.321,1.132 -0.428,1.517 -0.524,1.882 -2.438,7.287 -2.658,7.507 -0.085,0.086 -0.155,0.296 -0.155,0.469 0,0.172 -0.22,0.811 -0.49,1.42 -0.269,0.608 -0.575,1.316 -0.679,1.572 -0.45,1.111 -4.247,8.731 -4.835,9.704 -0.356,0.588 -1.164,1.923 -1.796,2.968 -2.235,3.697 -6.01,8.441 -9.692,12.182 -2.619,2.66 -3.228,3.062 -2.923,1.926 1.235,-4.59 1.884,-9.531 2.401,-18.287 l 0.395,-6.676 1.618,-2.425 c 1.952,-2.925 4.308,-6.705 5.765,-9.252 1.423,-2.486 1.786,-3.131 3.164,-5.632 1.147,-2.082 0.108,-2.258 -1.213,-0.207 -1.712,2.661 -7.553,10.716 -8.972,12.374 -0.724,0.846 -0.946,0.5 -0.946,-1.477 0,-1.037 -0.107,-2.902 -0.237,-4.143 -0.454,-4.317 -0.714,-6.467 -0.971,-8.011 -0.254,-1.524 -0.243,-1.593 0.618,-3.734 0.886,-2.203 2.575,-7.094 2.969,-8.598 0.118,-0.449 0.321,-1.184 0.45,-1.634 0.429,-1.487 1.023,-3.963 1.371,-5.717 0.127,-0.642 0.344,-1.692 0.481,-2.334 0.138,-0.642 0.352,-1.797 0.476,-2.567 0.125,-0.77 0.334,-2.03 0.465,-2.8 2.103,-12.368 2.466,-40.277 0.498,-38.309 -0.256,0.256 -0.396,1.297 -0.543,4.041 -0.192,3.603 -0.419,6.407 -0.9,11.164 -0.3,2.966 -0.968,8.012 -1.389,10.501 -0.131,0.771 -0.337,2.031 -0.459,2.801 -0.239,1.513 -0.837,4.564 -1.188,6.068 -0.769,3.292 -1.704,7.088 -1.867,7.584 -0.106,0.321 -0.422,1.371 -0.703,2.334 -0.604,2.065 -1.353,4.362 -1.638,5.017 -0.111,0.257 -0.336,0.861 -0.498,1.342 -0.387,1.147 -0.549,1.104 -0.896,-0.233 -0.553,-2.136 -0.619,-2.275 -1.076,-2.275 -0.246,0 -0.425,0.118 -0.399,0.262 1.178,6.367 1.262,5.853 -2.029,12.34 -2.681,5.284 -4.545,8.285 -8.007,12.893 -1.213,1.615 -1.239,1.596 -1.409,-1.05 -0.282,-4.408 -1.062,-11.172 -1.768,-15.344 -0.857,-5.059 -0.936,-4.531 0.994,-6.651 2.051,-2.252 5.14,-7.398 6.235,-10.385 0.467,-1.274 0.728,-2.179 1.347,-4.668 0.97,-3.901 0.772,-11.201 -0.303,-11.201 -0.446,0 -0.635,0.41 -1.292,2.8 -1.756,6.393 -9.802,19.742 -9.802,16.262 0,-0.472 -2.309,-9.652 -3.284,-13.053 -0.119,-0.417 -0.313,-1.1 -0.431,-1.517 -0.118,-0.417 -0.546,-1.861 -0.953,-3.209 -0.406,-1.348 -0.822,-2.765 -0.925,-3.15 -0.102,-0.385 -0.341,-1.173 -0.53,-1.751 -0.189,-0.577 -0.48,-1.522 -0.645,-2.1 -0.165,-0.578 -0.432,-1.47 -0.592,-1.984 -0.88,-2.817 -1.934,-7.851 -2.712,-12.952 -0.409,-2.686 -0.417,-14.232 -0.01,-16.453 0.164,-0.898 0.413,-2.263 0.554,-3.033 0.227,-1.245 0.472,-2.264 1.123,-4.668 1.113,-4.112 3.13,-8.573 5.397,-11.938 2.497,-3.706 -0.946,-1.573 -5.083,3.148 -3.136,3.58 -5.784,8.035 -7.028,11.824 -0.531,1.619 -0.936,3.381 -1.443,6.282 -0.312,1.786 -0.311,9.242 0.001,11.409 0.591,4.102 0.75,5.083 1.18,7.28 0.251,1.283 0.553,2.754 0.671,3.267 0.584,2.534 1.218,5.218 1.406,5.951 0.115,0.449 0.274,1.079 0.352,1.4 0.162,0.663 1.331,5.138 1.981,7.585 0.812,3.053 3.424,13.529 3.724,14.936 0.165,0.77 0.38,1.715 0.479,2.1 0.099,0.385 0.305,1.33 0.459,2.1 0.153,0.77 0.37,1.821 0.481,2.334 0.631,2.905 0.919,2.554 -7.008,8.532 -1.604,1.21 -2.969,2.253 -3.033,2.318 -0.065,0.065 -1.01,0.797 -2.101,1.625 -1.985,1.508 -6.548,5.126 -6.768,5.367 -0.064,0.07 -1.009,0.912 -2.1,1.871 -2.554,2.244 -7.178,6.868 -9.11,9.109 -0.829,0.962 -1.566,1.802 -1.636,1.867 -0.692,0.632 -4.289,5.394 -5.787,7.66 -7.795,11.798 -10.862,26.047 -9.403,43.681 0.237,2.873 0.134,2.928 -1.428,0.764 -0.72,-0.997 -2.059,-2.706 -2.976,-3.797 -0.918,-1.091 -1.755,-2.194 -1.862,-2.451 -0.387,-0.933 -1.501,-6.522 -1.861,-9.335 -0.131,-1.027 -0.344,-2.685 -0.474,-3.685 -0.349,-2.691 -0.282,-11.261 0.114,-14.518 0.687,-5.663 1.557,-9.628 3.175,-14.469 0.697,-2.087 0.809,-2.391 1.376,-3.734 0.163,-0.385 0.379,-0.91 0.481,-1.167 0.101,-0.256 0.872,-1.884 1.712,-3.617 3.892,-8.025 6.848,-12.347 17.714,-25.904 5.044,-6.295 9.755,-15.508 11.813,-23.104 0.156,-0.578 0.375,-1.365 0.486,-1.75 0.307,-1.066 1.091,-5.14 1.391,-7.235 0.148,-1.027 0.32,-2.182 0.384,-2.567 1.081,-6.526 0.703,-21.289 -0.857,-33.44 -0.296,-2.304 -0.279,-9.533 0.027,-11.834 0.333,-2.502 1.02,-6.133 1.39,-7.351 0.098,-0.321 0.307,-1.056 0.465,-1.634 3.062,-11.173 12.454,-24.801 22.355,-32.439 2.857,-2.204 2.164,-2.737 -1.235,-0.95 m -3.122,134.441 c 0.08,0.705 0.272,2.384 0.427,3.732 0.557,4.834 0.722,7.444 0.858,13.536 l 0.138,6.184 -1.251,1.179 c -4.526,4.268 -9.528,7.944 -19.453,14.296 -3.571,2.285 -7.229,5.484 -9.923,8.679 -0.704,0.834 -1.335,1.569 -1.404,1.634 -0.379,0.355 -2.605,3.655 -3.619,5.366 -3.83,6.464 -6.725,14.653 -8.043,22.755 -0.146,0.899 -0.363,2.202 -0.482,2.898 -0.119,0.695 -0.217,1.719 -0.217,2.275 0,1.205 -0.227,1.287 -0.699,0.253 -0.463,-1.013 -0.492,-15.849 -0.038,-19.545 1.011,-8.235 2.909,-16.68 4.694,-20.887 0.109,-0.257 0.433,-1.097 0.72,-1.867 0.722,-1.941 3.575,-7.812 4.678,-9.629 0.503,-0.827 0.914,-1.55 0.914,-1.607 0,-0.057 0.54,-0.913 1.201,-1.902 4.645,-6.955 10.924,-13.777 17.589,-19.111 3.878,-3.104 6.546,-5.092 10.48,-7.809 3.075,-2.124 3.236,-2.145 3.43,-0.43 m 21.993,18.105 c -0.271,7.82 0.279,6.533 -5.086,11.895 -4.193,4.191 -4.839,4.788 -7.509,6.936 -1.803,1.45 -2.257,1.626 -2.098,0.81 0.097,-0.494 0.254,-1.717 0.833,-6.476 0.132,-1.091 0.241,-2.756 0.241,-3.699 l -0.001,-1.716 2.742,-2.721 c 3.998,-3.967 6.734,-7.611 9.781,-13.026 l 0.896,-1.592 0.214,1.506 c 0.132,0.925 0.127,4.045 -0.013,8.083 m -21.647,14.39 c -0.361,2.29 -1.205,6.396 -1.548,7.526 -0.117,0.386 -0.426,1.436 -0.688,2.334 -1.022,3.509 -0.914,3.319 -2.411,4.257 -15.828,9.924 -25.681,17.739 -31.047,24.623 -0.875,1.123 -1.626,2.042 -1.667,2.042 -0.284,0 1.361,-3.505 2.876,-6.126 0.278,-0.481 0.72,-1.255 0.984,-1.72 1.105,-1.951 6.141,-8.986 7.444,-10.4 0.199,-0.216 0.835,-0.966 1.412,-1.667 1.624,-1.97 10.1,-10.34 12.836,-12.676 4.022,-3.433 11.324,-9.125 11.758,-9.165 0.114,-0.011 0.137,0.427 0.051,0.972 m 20.286,0.467 c -0.326,2.15 -1.107,5.85 -1.76,8.343 -0.646,2.468 -1.913,6.604 -2.323,7.585 -0.108,0.256 -0.434,1.096 -0.726,1.867 -1.871,4.944 -3.332,7.648 -4.467,8.272 -3.018,1.656 -6.74,3.413 -8.586,4.053 -0.577,0.199 -1.906,0.676 -2.954,1.058 -2.225,0.812 -2.332,0.777 -1.579,-0.512 2.087,-3.573 4.675,-9.354 6.001,-13.401 0.62,-1.894 0.893,-2.275 2.735,-3.82 2.832,-2.375 8.492,-8.313 11.711,-12.287 1.325,-1.637 1.796,-2.136 2.02,-2.146 0.044,-0.002 0.011,0.442 -0.072,0.988 m -98.833,17.372 c 5.554,3.8 16.297,15.688 17.463,19.326 0.288,0.898 0.623,1.87 0.745,2.158 0.122,0.289 0.327,0.788 0.455,1.109 0.128,0.321 0.329,0.82 0.447,1.108 2.078,5.107 5.392,10.583 9.171,15.156 0.861,1.043 0.882,1.107 0.443,1.342 -0.951,0.509 -2.19,-0.109 -6.761,-3.369 -13.582,-9.686 -21.82,-22.046 -22.788,-34.19 -0.077,-0.963 -0.195,-2.039 -0.263,-2.392 -0.145,-0.759 0.219,-0.842 1.088,-0.248 m 70.705,6.163 c 0,0.617 -4.586,8.434 -6.369,10.857 -4.05,5.502 -4.341,5.838 -6.054,6.969 -5.337,3.526 -12.594,9.491 -17.224,14.16 -1.064,1.072 -3.492,1.572 -3.492,0.719 0,-2.095 4.833,-10.255 9.088,-15.342 2.016,-2.41 7.356,-7.437 10.007,-9.42 0.601,-0.449 1.459,-1.096 1.909,-1.437 0.449,-0.341 1.709,-1.18 2.8,-1.864 5.671,-3.554 9.335,-5.376 9.335,-4.642 m 130.866,1.542 c 0.29,0.056 0.711,0.054 0.934,-0.004 0.223,-0.059 -0.015,-0.104 -0.528,-0.102 -0.514,0.003 -0.696,0.051 -0.406,0.106 m 45.741,0 c 0.29,0.056 0.71,0.054 0.934,-0.004 0.223,-0.059 -0.015,-0.104 -0.528,-0.102 -0.514,0.003 -0.696,0.051 -0.406,0.106 m -49.127,3.686 c 0.003,0.514 0.05,0.696 0.106,0.406 0.056,-0.291 0.054,-0.711 -0.004,-0.934 -0.059,-0.223 -0.105,0.015 -0.102,0.528 m 45.741,0 c 0.003,0.514 0.05,0.696 0.106,0.406 0.056,-0.291 0.054,-0.711 -0.005,-0.934 -0.058,-0.223 -0.104,0.015 -0.101,0.528 m -61.733,0.752 c 0.415,0.052 1.15,0.052 1.634,0.002 0.484,-0.051 0.145,-0.093 -0.753,-0.094 -0.899,-0.001 -1.295,0.04 -0.881,0.092 m -97.952,5.778 c 0,0.062 -0.932,1.191 -2.07,2.509 -6.701,7.762 -14.68,13.525 -24.768,17.89 -3.03,1.311 -3.583,1.431 -5.832,1.272 -2.327,-0.165 -2.639,-0.313 -1.687,-0.799 0.66,-0.336 2.061,-1.196 4.835,-2.967 1.888,-1.206 5.217,-3.694 7.224,-5.4 0.765,-0.65 1.466,-1.182 1.557,-1.182 0.092,0 1.076,-0.525 2.187,-1.167 1.112,-0.642 2.057,-1.167 2.101,-1.167 0.044,0 0.989,-0.525 2.1,-1.167 1.111,-0.641 2.052,-1.166 2.09,-1.166 0.039,0 2.735,-1.523 5.991,-3.384 5.578,-3.187 6.272,-3.549 6.272,-3.272 m 133.709,3.33 -0.804,0.875 0.875,-0.804 c 0.815,-0.749 0.983,-0.946 0.804,-0.946 -0.039,0 -0.432,0.394 -0.875,0.875 m -94.749,0.233 -0.804,0.876 0.875,-0.805 c 0.481,-0.442 0.875,-0.836 0.875,-0.875 0,-0.178 -0.197,-0.01 -0.946,0.804 m 134.889,0 -0.804,0.876 0.875,-0.805 c 0.815,-0.748 0.983,-0.946 0.804,-0.946 -0.039,0 -0.432,0.394 -0.875,0.875 m -121.753,6.593 c 0,0.449 0.048,0.633 0.106,0.409 0.059,-0.225 0.059,-0.593 0,-0.817 -0.058,-0.225 -0.106,-0.041 -0.106,0.408 m 134.889,0 c 0,0.449 0.048,0.633 0.107,0.409 0.058,-0.225 0.058,-0.593 0,-0.817 -0.059,-0.225 -0.107,-0.041 -0.107,0.408 m -123.445,7.468 c 0,0.578 0.046,0.814 0.101,0.525 0.056,-0.289 0.056,-0.761 0,-1.05 -0.055,-0.289 -0.101,-0.052 -0.101,0.525 m -30.335,0.584 c 0.002,0.641 0.047,0.876 0.101,0.521 0.054,-0.354 0.052,-0.879 -0.003,-1.166 -0.056,-0.287 -0.1,0.003 -0.098,0.645 m 36.412,0.233 c 0.001,0.77 0.045,1.057 0.097,0.638 0.052,-0.42 0.05,-1.05 -0.003,-1.401 -0.053,-0.35 -0.096,-0.007 -0.094,0.763 m 98.477,-0.233 c 0.002,0.641 0.047,0.876 0.101,0.521 0.054,-0.354 0.052,-0.879 -0.003,-1.166 -0.056,-0.287 -0.099,0.003 -0.098,0.645 m -128.813,1.05 c 0,0.834 0.042,1.175 0.094,0.758 0.052,-0.417 0.052,-1.1 0,-1.517 -0.052,-0.417 -0.094,-0.076 -0.094,0.759 m 134.889,0 c 0,0.834 0.042,1.175 0.094,0.758 0.052,-0.417 0.052,-1.1 0,-1.517 -0.052,-0.417 -0.094,-0.076 -0.094,0.759 m -110.639,0.933 c 0,0.449 0.048,0.633 0.107,0.409 0.058,-0.225 0.058,-0.593 0,-0.817 -0.059,-0.225 -0.107,-0.041 -0.107,0.408 m -30.338,0.7 c 0,0.45 0.048,0.633 0.106,0.409 0.059,-0.225 0.059,-0.592 0,-0.817 -0.058,-0.225 -0.106,-0.041 -0.106,0.408 m 134.889,0 c 0,0.45 0.048,0.633 0.106,0.409 0.059,-0.225 0.059,-0.592 0,-0.817 -0.058,-0.225 -0.106,-0.041 -0.106,0.408 m -86.12,4.329 c -0.027,1.29 -0.153,2.472 -0.281,2.627 -0.128,0.154 -0.072,0.141 0.125,-0.029 0.288,-0.249 0.343,-0.766 0.282,-2.627 l -0.077,-2.316 -0.049,2.345 m 19.02,-1.13 c 0.172,0.123 0.314,1.013 0.365,2.293 l 0.083,2.093 -0.015,-2.198 c -0.012,-1.747 -0.087,-2.218 -0.365,-2.293 -0.249,-0.068 -0.269,-0.037 -0.068,0.105 m -34.705,2.752 c 0.436,0.45 0.844,0.817 0.909,0.817 0.064,0 -0.24,-0.367 -0.675,-0.817 -0.436,-0.449 -0.845,-0.816 -0.909,-0.816 -0.064,0 0.24,0.367 0.675,0.816"
     id="path1" />
  <path
     style="fill:#212a61;fill-rule:evenodd;stroke:none"
     inkscape:connector-curvature="0"
     d="m 301.167,205.181 c -1.709,0.974 -2.381,4.247 -1.104,5.382 2.751,2.446 7.448,-1.02 5.773,-4.259 -0.683,-1.32 -3.243,-1.936 -4.669,-1.123 m 45.741,0 c -1.709,0.974 -2.381,4.247 -1.104,5.382 2.751,2.446 7.448,-1.02 5.773,-4.259 -0.683,-1.32 -3.243,-1.936 -4.669,-1.123 m -64.7,4.446 c -0.126,0.16 -0.681,1.131 -1.234,2.158 -1.554,2.889 -2.064,3.617 -2.7,3.859 -0.324,0.124 -1.163,0.487 -1.865,0.808 -0.702,0.321 -1.363,0.584 -1.467,0.584 -0.424,0 -0.915,0.878 -1.061,1.897 -0.188,1.305 -0.081,1.37 2.245,1.37 1.582,0 1.637,0.02 1.523,0.525 -0.065,0.289 -0.351,1.628 -0.635,2.976 -0.285,1.348 -0.612,2.87 -0.727,3.384 -0.115,0.513 -0.313,1.458 -0.441,2.1 -0.128,0.642 -0.325,1.587 -0.438,2.101 -0.113,0.513 -0.388,1.773 -0.611,2.8 -0.948,4.367 -0.385,7.581 1.574,9 2.199,1.594 5.466,1.818 9.335,0.643 l 0.875,-0.266 v -2.205 c 0,-2.168 -0.009,-2.203 -0.525,-2.08 -2.692,0.642 -3.404,0.682 -4.301,0.244 -1.883,-0.919 -1.871,-1.649 0.185,-10.937 0.142,-0.642 0.34,-1.587 0.44,-2.1 0.101,-0.514 0.299,-1.459 0.441,-2.101 0.142,-0.641 0.389,-1.797 0.55,-2.567 l 0.293,-1.4 3.419,-0.064 c 4.143,-0.078 3.91,0.118 4.552,-3.845 l 0.142,-0.875 h -3.532 c -2.476,0 -3.531,-0.079 -3.531,-0.265 0,-0.145 0.096,-0.644 0.213,-1.108 0.271,-1.071 0.661,-2.922 0.856,-4.053 l 0.15,-0.875 h -1.748 c -1.12,0 -1.83,0.105 -1.977,0.292 m -53.117,6.037 c -10.634,3.596 -14.669,24.957 -5.371,28.436 3.239,1.211 7.057,0.065 10.204,-3.064 1.426,-1.418 1.628,-1.421 1.458,-0.021 -0.073,0.61 -0.162,1.529 -0.196,2.042 l -0.063,0.934 2.079,0.068 c 2.304,0.075 2.449,0.007 2.707,-1.275 0.27,-1.337 1.185,-5.662 1.424,-6.728 0.114,-0.513 0.313,-1.459 0.441,-2.1 0.127,-0.642 0.327,-1.587 0.443,-2.101 0.446,-1.972 0.735,-3.31 0.958,-4.434 0.127,-0.642 0.325,-1.587 0.44,-2.1 0.115,-0.514 0.441,-2.036 0.726,-3.384 0.284,-1.348 0.614,-2.87 0.733,-3.384 0.118,-0.513 0.278,-1.38 0.355,-1.925 l 0.139,-0.992 h -2.102 c -2.376,0 -2.307,-0.044 -3.09,1.984 -0.827,2.145 -0.924,2.18 -1.987,0.713 -2.065,-2.85 -5.689,-3.89 -9.298,-2.669 m 31.606,-0.136 c -6.492,1.581 -10.877,7.72 -11.658,16.32 -0.93,10.224 6.097,15.22 16.422,11.676 1.754,-0.602 1.75,-0.596 1.75,-3.179 0,-2.289 -0.168,-2.714 -0.828,-2.099 -0.122,0.113 -0.852,0.422 -1.622,0.686 -6.916,2.368 -10.582,-0.465 -9.69,-7.487 1.137,-8.946 6.028,-12.996 12.934,-10.712 1.761,0.583 1.815,0.564 2.212,-0.78 0.113,-0.385 0.427,-1.25 0.696,-1.921 l 0.489,-1.222 -0.637,-0.312 c -2.484,-1.218 -7.189,-1.671 -10.068,-0.97 m 62.856,0.078 c -2.23,0.761 -5.119,3.031 -6.094,4.788 -0.314,0.566 -0.807,0.274 -0.672,-0.397 0.057,-0.281 0.165,-1.377 0.24,-2.436 l 0.137,-1.925 h -2.209 c -2.458,0 -2.377,-0.05 -2.729,1.674 -0.14,0.684 -0.349,1.663 -0.465,2.177 -0.116,0.513 -0.315,1.458 -0.442,2.1 -0.128,0.642 -0.328,1.587 -0.444,2.1 -0.445,1.972 -0.734,3.31 -0.957,4.434 -0.128,0.642 -0.326,1.587 -0.441,2.101 -0.115,0.513 -0.441,2.036 -0.726,3.384 -0.284,1.347 -0.61,2.87 -0.725,3.383 -0.115,0.514 -0.314,1.459 -0.441,2.101 -0.128,0.642 -0.34,1.639 -0.471,2.217 -0.132,0.577 -0.304,1.447 -0.383,1.932 l -0.143,0.883 3.004,-0.066 c 2.802,-0.061 3.009,-0.097 3.068,-0.532 0.082,-0.599 0.497,-2.732 0.794,-4.084 0.335,-1.525 0.59,-2.732 0.91,-4.317 1.067,-5.276 1.45,-6.536 2.842,-9.335 2.194,-4.411 5.866,-6.696 8.642,-5.379 1.851,0.878 1.988,2.7 0.668,8.879 -0.246,1.155 -0.68,3.203 -0.963,4.551 -0.284,1.348 -0.61,2.87 -0.725,3.384 -0.114,0.513 -0.313,1.458 -0.441,2.1 -0.127,0.642 -0.338,1.64 -0.468,2.217 -0.129,0.578 -0.301,1.395 -0.382,1.816 l -0.147,0.766 3.004,-0.066 3.004,-0.065 0.153,-0.817 c 0.085,-0.449 0.271,-1.342 0.414,-1.984 0.142,-0.642 0.364,-1.692 0.491,-2.334 0.127,-0.641 0.337,-1.639 0.466,-2.217 0.129,-0.577 0.339,-1.575 0.467,-2.217 0.127,-0.641 0.337,-1.639 0.466,-2.217 0.129,-0.577 0.337,-1.575 0.461,-2.217 0.124,-0.641 0.395,-1.902 0.602,-2.8 1.954,-8.49 -2.453,-13.941 -9.365,-11.582 m 40.427,0.058 c -10.634,3.596 -14.668,24.957 -5.371,28.436 3.239,1.211 7.057,0.065 10.205,-3.064 1.425,-1.418 1.627,-1.421 1.458,-0.021 -0.074,0.61 -0.163,1.529 -0.197,2.042 l -0.063,0.934 2.079,0.068 c 2.304,0.075 2.449,0.007 2.708,-1.275 0.269,-1.337 1.184,-5.662 1.423,-6.728 0.115,-0.513 0.313,-1.459 0.441,-2.1 0.127,-0.642 0.327,-1.587 0.443,-2.101 0.446,-1.972 0.735,-3.31 0.958,-4.434 0.127,-0.642 0.325,-1.587 0.44,-2.1 0.115,-0.514 0.442,-2.036 0.726,-3.384 0.284,-1.348 0.614,-2.87 0.733,-3.384 0.118,-0.513 0.278,-1.38 0.355,-1.925 l 0.139,-0.992 h -2.102 c -2.376,0 -2.307,-0.044 -3.089,1.984 -0.828,2.145 -0.925,2.18 -1.988,0.713 -2.065,-2.85 -5.688,-3.89 -9.298,-2.669 m -65.836,0.187 c -0.073,0.119 -0.247,0.775 -0.387,1.459 -0.14,0.684 -0.349,1.663 -0.465,2.177 -0.116,0.513 -0.315,1.458 -0.442,2.1 -0.223,1.124 -0.512,2.462 -0.958,4.434 -0.116,0.513 -0.315,1.459 -0.443,2.1 -0.127,0.642 -0.326,1.587 -0.441,2.101 -0.115,0.513 -0.441,2.036 -0.726,3.384 -0.284,1.347 -0.611,2.87 -0.725,3.383 -0.115,0.514 -0.314,1.459 -0.441,2.101 -0.128,0.642 -0.34,1.639 -0.471,2.217 -0.132,0.577 -0.303,1.444 -0.382,1.925 l -0.142,0.875 h 2.943 2.943 l 0.135,-0.641 c 0.074,-0.353 0.24,-1.115 0.371,-1.692 0.399,-1.772 0.635,-2.881 0.797,-3.734 0.085,-0.45 0.249,-1.237 0.365,-1.751 0.115,-0.513 0.314,-1.458 0.442,-2.1 0.127,-0.642 0.326,-1.587 0.441,-2.1 0.115,-0.514 0.441,-2.036 0.726,-3.384 0.284,-1.348 0.61,-2.871 0.725,-3.384 0.115,-0.514 0.313,-1.459 0.441,-2.1 0.127,-0.642 0.335,-1.64 0.461,-2.217 1.317,-6.019 1.541,-5.368 -1.847,-5.368 -1.533,0 -2.847,0.097 -2.92,0.215 m 45.741,0 c -0.073,0.119 -0.247,0.775 -0.387,1.459 -0.14,0.684 -0.349,1.663 -0.465,2.177 -0.116,0.513 -0.315,1.458 -0.442,2.1 -0.223,1.124 -0.512,2.462 -0.958,4.434 -0.116,0.513 -0.315,1.459 -0.443,2.1 -0.127,0.642 -0.326,1.587 -0.441,2.101 -0.115,0.513 -0.441,2.036 -0.726,3.384 -0.284,1.347 -0.611,2.87 -0.725,3.383 -0.115,0.514 -0.314,1.459 -0.442,2.101 -0.127,0.642 -0.339,1.639 -0.471,2.217 -0.131,0.577 -0.303,1.444 -0.381,1.925 l -0.142,0.875 h 2.943 2.943 l 0.135,-0.641 c 0.074,-0.353 0.24,-1.115 0.371,-1.692 0.399,-1.772 0.635,-2.881 0.797,-3.734 0.085,-0.45 0.249,-1.237 0.364,-1.751 0.116,-0.513 0.315,-1.458 0.443,-2.1 0.127,-0.642 0.326,-1.587 0.441,-2.1 0.115,-0.514 0.441,-2.036 0.726,-3.384 0.284,-1.348 0.61,-2.871 0.725,-3.384 0.115,-0.514 0.313,-1.459 0.441,-2.1 0.127,-0.642 0.334,-1.64 0.461,-2.217 1.317,-6.019 1.541,-5.368 -1.847,-5.368 -1.533,0 -2.847,0.097 -2.92,0.215 m -108.287,5.026 c 4.282,3.266 0.478,16.352 -5.391,18.548 -4.467,1.672 -7.091,-3.575 -5.012,-10.02 0.104,-0.321 0.324,-1.056 0.489,-1.634 1.695,-5.929 6.656,-9.379 9.914,-6.894 m 134.889,0 c 4.282,3.266 0.479,16.352 -5.391,18.548 -4.467,1.672 -7.091,-3.575 -5.012,-10.02 0.104,-0.321 0.324,-1.056 0.489,-1.634 1.695,-5.929 6.656,-9.379 9.914,-6.894"
     id="path2" />
</svg>
